<svg width="64" height="64" viewBox="0 0 64 64" fill="none" xmlns="http://www.w3.org/2000/svg">
  <rect width="64" height="64" rx="18" fill="#2563EB"/>
  <rect x="6" y="6" width="52" height="52" rx="15" fill="url(#paint0_linear)"/>

  <path
    d="M15 44V19h18.5v6.1h-11v4.9h9.3v5.9h-9.3V44H15Z"
    fill="white"
  />

  <path
    d="M34.5 44V19h12.1c5.8 0 9.4 3.2 9.4 8.3 0 3.3-1.6 5.7-4.4 7.1L56.5 44h-7.8l-4.1-8.4H42V44h-7.5ZM42 30h3.7c1.9 0 3-1 3-2.7 0-1.8-1.1-2.8-3-2.8H42V30Z"
    fill="white"
  />

  <defs>
    <linearGradient id="paint0_linear" x1="10" y1="8" x2="58" y2="58" gradientUnits="userSpaceOnUse">
      <stop stop-color="#3B82F6"/>
      <stop offset="1" stop-color="#1D4ED8"/>
    </linearGradient>
  </defs>
</svg>